<svg width="11" height="15" viewBox="0 0 11 15" fill="none" xmlns="http://www.w3.org/2000/svg">
<path d="M9.817 5.134V4.363C9.817 3.20586 9.35733 2.09611 8.53911 1.27789C7.72089 0.459672 6.61114 0 5.454 0C4.29686 0 3.18711 0.459672 2.36889 1.27789C1.55067 2.09611 1.091 3.20586 1.091 4.363V5.134C0.77761 5.2425 0.505011 5.44446 0.309938 5.71267C0.114864 5.98087 0.00669297 6.30243 0 6.634V12.361C0.00980861 12.5886 0.0648544 12.8121 0.161926 13.0182C0.258997 13.2243 0.39615 13.4091 0.565382 13.5616C0.734614 13.7142 0.932536 13.8316 1.1476 13.9068C1.36266 13.9821 1.59056 14.0138 1.818 14H9.09C9.3172 14.0138 9.54486 13.9822 9.75973 13.9071C9.9746 13.832 10.1724 13.715 10.3416 13.5627C10.5108 13.4104 10.648 13.2261 10.7452 13.0203C10.8425 12.8145 10.8978 12.5914 10.908 12.364V6.637C10.9019 6.30491 10.794 5.98269 10.5989 5.71389C10.4038 5.4451 10.1309 5.24268 9.817 5.134ZM5.454 2.182C6.03237 2.18253 6.58691 2.41245 6.99597 2.82132C7.40503 3.2302 7.63521 3.78463 7.636 4.363V5H3.272V4.363C3.27279 3.78463 3.50297 3.2302 3.91203 2.82132C4.32109 2.41245 4.87563 2.18253 5.454 2.182Z" fill="#B0B4C8"/>
</svg>
