<svg width="16" height="16" viewBox="0 0 16 16" fill="none" xmlns="http://www.w3.org/2000/svg">
<path d="M8.94701 0.614671L10.95 4.9447L15.0519 5.39057C15.2595 5.41122 15.4564 5.4948 15.6175 5.63066C15.7786 5.76652 15.8964 5.94849 15.9561 6.15333C16.0158 6.35817 16.0146 6.57659 15.9526 6.7807C15.8906 6.98482 15.7706 7.16537 15.608 7.29929L12.3375 10.0553L13.3492 14.6884C13.3945 14.8944 13.3795 15.1094 13.3063 15.3067C13.2332 15.504 13.1049 15.6748 12.9377 15.798C12.7704 15.9211 12.5714 15.9911 12.3656 15.9992C12.1598 16.0073 11.9562 15.9531 11.7802 15.8435L7.99805 13.4854L4.21247 15.8423C4.03639 15.9518 3.8328 16.0058 3.62702 15.9976C3.42123 15.9894 3.22233 15.9195 3.05503 15.7964C2.88773 15.6733 2.75941 15.5026 2.68603 15.3054C2.61265 15.1082 2.59744 14.8932 2.64229 14.6873L3.65863 10.0553L0.388076 7.29929C0.226627 7.165 0.107748 6.98458 0.0465223 6.78093C-0.0147031 6.57728 -0.0155144 6.35958 0.0441914 6.15546C0.103897 5.95133 0.221429 5.76999 0.381871 5.63443C0.542314 5.49888 0.738436 5.41522 0.945349 5.39408L5.0461 4.94821L7.04908 0.614671C7.13435 0.430734 7.26877 0.275349 7.43674 0.16655C7.60471 0.0577508 7.79934 0 7.99805 0C8.19676 0 8.39139 0.0577508 8.55936 0.16655C8.72733 0.275349 8.86175 0.430734 8.94701 0.614671Z" fill="#B0B4C8"/>
</svg>
