<svg width="32" height="32" viewBox="0 0 32 32" fill="none" xmlns="http://www.w3.org/2000/svg">
<rect width="32" height="32" rx="10" fill="#2E50CB"/>
<path d="M14.5222 16.6253V21.2041C14.5235 21.5252 14.6509 21.8329 14.877 22.0608C15.1031 22.2888 15.4097 22.4187 15.7308 22.4226H16.2213C16.5442 22.4221 16.8536 22.2935 17.0817 22.065C17.3098 21.8366 17.4379 21.527 17.4379 21.2041V16.6253C17.4365 16.3033 17.3079 15.995 17.0799 15.7676C16.852 15.5402 16.5433 15.4123 16.2213 15.4117H15.7298C15.4098 15.4159 15.1041 15.5453 14.8784 15.7721C14.6527 15.999 14.5248 16.3052 14.5222 16.6253Z" fill="white"/>
<path d="M9 10.2185V21.204C9.00128 21.525 9.12871 21.8327 9.3548 22.0607C9.58088 22.2886 9.8875 22.4186 10.2085 22.4225H10.6951C11.018 22.422 11.3274 22.2934 11.5555 22.0649C11.7835 21.8364 11.9116 21.5268 11.9116 21.204V10.2185C11.9116 9.89568 11.7835 9.58605 11.5555 9.3576C11.3274 9.12914 11.018 9.00053 10.6951 9H10.2075C9.88668 9.00418 9.58031 9.13425 9.35444 9.36217C9.12857 9.59009 9.00128 9.89762 9 10.2185V10.2185Z" fill="white"/>
<path d="M20.0444 13.1461V21.204C20.0457 21.525 20.1731 21.8327 20.3992 22.0607C20.6253 22.2886 20.9319 22.4186 21.253 22.4225H21.7436C22.0664 22.422 22.3758 22.2934 22.6039 22.0649C22.832 21.8364 22.9601 21.5268 22.9601 21.204V13.1461C22.9598 12.8234 22.8316 12.5141 22.6035 12.2858C22.3755 12.0576 22.0662 11.9291 21.7436 11.9286H21.252C20.9312 11.9325 20.6248 12.0624 20.3989 12.2901C20.173 12.5179 20.0457 12.8253 20.0444 13.1461Z" fill="white"/>
</svg>
