<svg width="24" height="24" viewBox="0 0 24 24" fill="none" xmlns="http://www.w3.org/2000/svg">
<rect width="24" height="24" rx="7" fill="#2E50CB"/>
<path d="M9.4076 16.1724L6.43075 13.1947C6.29419 13.0582 6.18586 12.8962 6.11195 12.7179C6.03804 12.5396 6 12.3484 6 12.1554C6 11.9624 6.03804 11.7712 6.11195 11.5929C6.18586 11.4146 6.29419 11.2525 6.43075 11.1161C6.70652 10.8407 7.08031 10.6861 7.47003 10.6861C7.85975 10.6861 8.23354 10.8407 8.50932 11.1161L10.3736 12.9787C10.4112 13.0161 10.462 13.037 10.515 13.037C10.568 13.037 10.6189 13.0161 10.6565 12.9787L15.4907 8.14439C15.7665 7.86902 16.1403 7.71436 16.53 7.71436C16.9198 7.71436 17.2935 7.86902 17.5693 8.14439C17.7059 8.28083 17.8142 8.44284 17.8881 8.62117C17.962 8.7995 18.0001 8.99064 18.0001 9.18368C18.0001 9.37672 17.962 9.56786 17.8881 9.74619C17.8142 9.92451 17.7059 10.0865 17.5693 10.223L11.6207 16.1724C11.3272 16.4658 10.9292 16.6307 10.5142 16.6307C10.0991 16.6307 9.70111 16.4658 9.4076 16.1724Z" fill="white"/>
</svg>
