<svg width="14" height="14" viewBox="0 0 14 14" fill="none" xmlns="http://www.w3.org/2000/svg">
<path d="M5.52222 7.62526V12.2041C5.5235 12.5252 5.65093 12.8329 5.87701 13.0608C6.1031 13.2888 6.40972 13.4187 6.73075 13.4226H7.22134C7.54417 13.4221 7.85358 13.2935 8.08167 13.065C8.30975 12.8366 8.43785 12.527 8.43785 12.2041V7.62526C8.43654 7.3033 8.30785 6.99495 8.07991 6.76757C7.85197 6.54019 7.5433 6.41227 7.22134 6.41174H6.72975C6.40976 6.41591 6.10413 6.54528 5.87839 6.77213C5.65266 6.99898 5.5248 7.30525 5.52222 7.62526Z" fill="#2E50CB"/>
<path d="M0 1.21851V12.204C0.00128433 12.525 0.128711 12.8327 0.354795 13.0607C0.58088 13.2886 0.887504 13.4186 1.20853 13.4225H1.69514C2.01796 13.422 2.32738 13.2934 2.55546 13.0649C2.78355 12.8364 2.91165 12.5268 2.91165 12.204V1.21851C2.91165 0.895683 2.78355 0.586053 2.55546 0.357596C2.32738 0.129139 2.01796 0.000528351 1.69514 0H1.20754C0.886681 0.00418174 0.58031 0.134246 0.35444 0.362169C0.128569 0.590091 0.00128034 0.897625 0 1.21851H0Z" fill="#2E50CB"/>
<path d="M11.0444 4.1461V12.204C11.0457 12.525 11.1731 12.8327 11.3992 13.0607C11.6253 13.2886 11.9319 13.4186 12.253 13.4225H12.7436C13.0664 13.422 13.3758 13.2934 13.6039 13.0649C13.832 12.8364 13.9601 12.5268 13.9601 12.204V4.1461C13.9598 3.82345 13.8316 3.51407 13.6035 3.28583C13.3755 3.05759 13.0662 2.92912 12.7436 2.92859H12.252C11.9312 2.93251 11.6248 3.06236 11.3989 3.29012C11.173 3.51788 11.0457 3.82531 11.0444 4.1461Z" fill="#2E50CB"/>
</svg>
