<svg width="21" height="21" viewBox="0 0 21 21" fill="none" xmlns="http://www.w3.org/2000/svg">
<path fill-rule="evenodd" clip-rule="evenodd" d="M18.8947 8.28947C18.8947 11.7631 16.0788 14.5789 12.6053 14.5789C9.13168 14.5789 6.31579 11.7631 6.31579 8.28947C6.31579 4.81589 9.13168 2 12.6053 2C16.0788 2 18.8947 4.81589 18.8947 8.28947ZM20.8947 8.28947C20.8947 12.8676 17.1834 16.5789 12.6053 16.5789C10.6766 16.5789 8.90171 15.9203 7.49338 14.8156L1.70711 20.6018C1.31658 20.9924 0.683417 20.9924 0.292893 20.6018C-0.0976311 20.2113 -0.0976311 19.5782 0.292893 19.1876L6.07916 13.4014C4.97447 11.993 4.31579 10.2182 4.31579 8.28947C4.31579 3.71132 8.02711 0 12.6053 0C17.1834 0 20.8947 3.71132 20.8947 8.28947Z" fill="#B0B4C8"/>
</svg>
