<svg width="16" height="16" viewBox="0 0 16 16" fill="none" xmlns="http://www.w3.org/2000/svg">
<path d="M10.6149 5.41122L10.896 5.44177L14.9979 5.88764L14.9979 5.88767L15.0024 5.88812C15.1085 5.89866 15.2105 5.94145 15.2951 6.01285C15.3799 6.08437 15.4436 6.18162 15.4761 6.29319C15.5086 6.40484 15.5079 6.52417 15.4742 6.63537C15.4404 6.7465 15.3757 6.84291 15.2901 6.91337L15.2901 6.91334L15.2858 6.91695L12.0153 9.67295L11.7846 9.8673L11.849 10.162L12.8607 14.7951L12.8609 14.7957C12.8856 14.9081 12.8773 15.0255 12.8376 15.1328C12.7978 15.2399 12.7289 15.3308 12.6412 15.3953L12.9377 15.798L12.6412 15.3953C12.5537 15.4598 12.451 15.4955 12.346 15.4996C12.2409 15.5037 12.1362 15.4762 12.0446 15.4191L8.26258 13.0611L7.99823 12.8963L7.73378 13.0609L3.94853 15.4177C3.94847 15.4177 3.94841 15.4177 3.94835 15.4178C3.85666 15.4747 3.75189 15.5022 3.64684 15.498C3.54171 15.4938 3.43892 15.4581 3.35131 15.3936C3.26355 15.3291 3.19452 15.2382 3.15464 15.131C3.11475 15.0238 3.10634 14.9064 3.13079 14.7939C3.1308 14.7938 3.13082 14.7937 3.13084 14.7936L4.14701 10.1625L4.21172 9.86752L3.98082 9.67295L0.71027 6.91695L0.710277 6.91694L0.707824 6.9149C0.622868 6.84423 0.558688 6.74786 0.525351 6.63697L0.0465223 6.78093L0.525351 6.63697C0.49199 6.52601 0.491543 6.40708 0.524084 6.29583C0.556602 6.18465 0.620088 6.08773 0.70456 6.01636C0.788887 5.94512 0.890489 5.90229 0.996166 5.89149L0.996167 5.8915L0.999395 5.89115L5.10015 5.44528L5.38131 5.41471L5.49996 5.15799L7.50272 0.824952C7.50275 0.824875 7.50279 0.824799 7.50282 0.824722C7.54899 0.725243 7.62087 0.643003 7.70856 0.586206C7.79618 0.52945 7.89653 0.5 7.99805 0.5C8.09956 0.5 8.19991 0.52945 8.28753 0.586206C8.37525 0.643021 8.44715 0.725296 8.49332 0.824816C8.49334 0.824862 8.49336 0.824907 8.49338 0.824952L10.4962 5.15462L10.6149 5.41122Z" stroke="#B0B4C8"/>
</svg>
